<svg width="54" height="54" viewBox="0 0 54 54" fill="none" xmlns="http://www.w3.org/2000/svg">
<path d="M27.1309 0C29.9829 0 32.7511 0.508424 35.3564 1.51074C37.8726 2.47871 40.133 3.86436 42.0732 5.62891C44.0135 7.39345 45.5372 9.44905 46.6016 11.7373C47.7037 14.1073 48.2627 16.624 48.2627 19.2178C48.2627 22.9701 47.4977 26.7809 45.9883 30.5439C44.7262 33.6914 42.9303 36.8417 40.6504 39.9062C36.5687 45.3934 31.8801 49.3523 29.4482 51.2246C28.7769 51.741 27.9534 52 27.1309 52C26.3084 51.9999 25.4857 51.7415 24.8145 51.2246C22.3826 49.3529 17.6942 45.3928 13.6123 39.9053C11.3325 36.8408 9.5365 33.6913 8.27441 30.5439C6.765 26.7815 6.00001 22.9701 6 19.2178C6 16.624 6.55901 14.1067 7.66113 11.7373C8.72547 9.44904 10.2492 7.39345 12.1895 5.62891C14.1297 3.86436 16.3901 2.47871 18.9062 1.51074C21.5114 0.508487 24.279 5.6259e-05 27.1309 0ZM27.1328 4.41016C23.1014 4.41017 19.3109 5.97995 16.46 8.83008C13.609 11.6802 12.0391 15.469 12.0391 19.5C12.0392 23.5309 13.6091 27.3199 16.46 30.1699C19.3109 33.0199 23.1008 34.5889 27.1328 34.5889C31.1649 34.5889 34.9547 33.0198 37.8057 30.1699C40.6566 27.3199 42.2265 23.5309 42.2266 19.5C42.2266 15.469 40.6566 11.6802 37.8057 8.83008C34.9547 5.97994 31.165 4.41016 27.1328 4.41016Z" fill="#DEF6F4"/>
<path d="M41 34C38.5962 34 36.3359 34.936 34.6359 36.6359C32.936 38.3359 32 40.5957 32 43C32 45.4043 32.936 47.6641 34.6359 49.3641C36.3359 51.064 38.5957 52 41 52C43.4043 52 45.6641 51.064 47.3641 49.3641C49.064 47.6641 50 45.4043 50 43C50 40.5957 49.064 38.3359 47.3641 36.6359C45.6641 34.936 43.4043 34 41 34Z" fill="#2EC4B6"/>
<line x1="37" y1="43" x2="45" y2="43" stroke="white" stroke-width="2" stroke-linecap="round"/>
<line x1="41" y1="39" x2="41" y2="47" stroke="white" stroke-width="2" stroke-linecap="round"/>
</svg>
