<svg width="108" height="128" viewBox="0 0 108 128" fill="none" xmlns="http://www.w3.org/2000/svg">
<g clip-path="url(#clip0_412_8787)">
<path d="M29.0959 19.2001V11.3828H14.8955C13.3405 11.3828 11.8219 12.0062 10.7239 13.0939C9.62764 14.1816 9 15.6876 9 17.2248V115.156C9 116.695 9.62764 118.201 10.7256 119.287C11.8235 120.377 13.3405 121 14.8971 121H85.1045C86.6562 121 88.1781 120.377 89.2711 119.287C90.3691 118.201 91 116.697 91 115.156V17.2248C91 15.686 90.3691 14.1816 89.2711 13.0939C88.1765 12.0062 86.6562 11.3828 85.1045 11.3828H71.747V19.2001H85.1045V112.121H14.8955V19.2001H29.0943H29.0959Z" fill="#DEF6F4"/>
<path d="M68.1285 11.3828H32.7126V19.2001H68.1285V11.3828Z" fill="#616E7D"/>
<path d="M14.8955 19.2031V112.124H85.1029V19.2031H71.7454V24.7646C71.7454 25.2355 71.5533 25.6965 71.2171 26.0311C70.8776 26.3642 70.4139 26.5561 69.937 26.5561H30.9027C30.4274 26.5561 29.9588 26.3658 29.6226 26.0311C29.2864 25.6965 29.0943 25.2355 29.0943 24.7646V19.2031H14.8955ZM79.2041 94.8756H20.7926V88.6595H79.2041V94.8756ZM79.2041 80.8078H20.7926V74.5934H79.2041V80.8078ZM79.2041 66.7416H20.7926V60.5272H79.2041V66.7416ZM79.2041 52.6755H20.7926V46.4578H79.2041V52.6755ZM79.2041 32.3916V38.6077H20.7926V32.3916H79.2041Z" fill="white"/>
<path d="M68.1285 19.2031H32.7126V22.9748H68.1285V19.2031Z" fill="white"/>
<path d="M30.9043 6.00164C30.4291 6.00164 29.9604 6.19195 29.6242 6.52662C29.288 6.85965 29.0959 7.32065 29.0959 7.79313V24.768C29.0959 25.2389 29.288 25.6999 29.6242 26.0345C29.9604 26.3676 30.4291 26.5595 30.9043 26.5595H69.9386C70.4156 26.5595 70.8792 26.3692 71.2187 26.0345C71.5549 25.6999 71.747 25.2389 71.747 24.768V7.79149C71.747 7.32065 71.5549 6.85801 71.2187 6.52498C70.8792 6.19031 70.4156 6 69.9386 6H30.9043V6.00164Z" fill="#DEF6F4"/>
<path d="M79.2041 32.3906H20.7926V38.6067H79.2041V32.3906Z" fill="#DEF6F4"/>
<path d="M79.2041 46.457H20.7926V52.6748H79.2041V46.457Z" fill="#DEF6F4"/>
<path d="M79.2041 60.5273H20.7926V66.7418H79.2041V60.5273Z" fill="#DEF6F4"/>
<path d="M79.2041 74.5938H20.7926V80.8082H79.2041V74.5938Z" fill="#DEF6F4"/>
<path d="M79.2041 88.6562H20.7926V94.8723H79.2041V88.6562Z" fill="#DEF6F4"/>
</g>
<circle cx="83" cy="103" r="22.5" fill="white" stroke="#2EC4B6" stroke-width="5"/>
<path d="M75 110.711L90.7093 95.0017" stroke="#2EC4B6" stroke-width="6" stroke-linecap="round"/>
<path d="M90.7109 110.715L75.0017 95.0056" stroke="#2EC4B6" stroke-width="6" stroke-linecap="round"/>
<defs>
<clipPath id="clip0_412_8787">
<rect width="82" height="115" fill="white" transform="translate(9 6)"/>
</clipPath>
</defs>
</svg>
