<svg width="12" height="14" viewBox="0 0 12 14" fill="none" xmlns="http://www.w3.org/2000/svg">
<path d="M10.4053 13.3174H7.98828V10.3613C7.98828 10.1489 7.81754 9.95825 7.60352 9.95801H4.43848C4.22594 9.95801 4.05566 10.1493 4.05566 10.3613V13.3174H1.59082V7.05469H10.4053V13.3174ZM7.21875 13.3174H4.77734V10.7412H7.21875V13.3174ZM9.79004 6.27148H2.23242L6.01172 2.82031L9.79004 6.27148ZM0.823242 13.6982C0.823471 13.9105 0.994055 14.1014 1.20801 14.1016H10.7686C10.9808 14.1013 11.1502 13.91 11.1504 13.6982V6.65137C11.1504 6.56361 11.1243 6.46644 11.0596 6.39648C11.059 6.39588 11.0579 6.39486 11.0566 6.39355C11.0533 6.39003 11.0497 6.38636 11.0469 6.38379C11.0406 6.37794 11.0271 6.3651 10.9971 6.33789C10.9364 6.28289 10.8049 6.16429 10.5186 5.90332C9.94571 5.38121 8.7509 4.2902 6.25293 2.00391V2.00488C6.12098 1.87102 5.91252 1.88232 5.77148 2.00195L5.76855 2.00391C3.21567 4.34844 2.02047 5.44551 1.45801 5.96191C1.12463 6.26799 1.01456 6.37252 0.973633 6.41113H0.946289L0.918945 6.46875C0.904743 6.49947 0.893075 6.51256 0.849609 6.55957L0.823242 6.58887V13.6982Z" fill="white" stroke="white" stroke-width="0.2"/>
<path d="M6.00977 -0.0996094C5.92258 -0.0995745 5.84054 -0.065264 5.77051 -0.00585938L5.76953 -0.00488281L0.0498047 5.01172L0.0488281 5.0127C-0.113194 5.15878 -0.150503 5.40255 -0.0292969 5.56641L-0.0283203 5.56738C0.116984 5.75596 0.357707 5.75685 0.507812 5.62988L0.509766 5.62891L0.443359 5.55371L0.509766 5.62793L5.98633 0.80957L11.4863 5.62891L11.4941 5.63574L11.4951 5.63477C11.6655 5.75541 11.9028 5.73181 12.0254 5.56641L12.0303 5.56055L12.0293 5.55957C12.1398 5.38452 12.1206 5.14139 11.9668 5.01074L6.25098 -0.00488281L6.24902 -0.00585938C6.17895 -0.0652943 6.09701 -0.0996094 6.00977 -0.0996094Z" fill="white" stroke="white" stroke-width="0.2"/>
</svg>
