<svg width="10" height="12" viewBox="0 0 10 12" fill="none" xmlns="http://www.w3.org/2000/svg">
<path fill-rule="evenodd" clip-rule="evenodd" d="M9.60167 6.30547C9.41857 6.30547 9.24189 6.47914 9.24189 6.6497C9.24189 8.90118 7.31128 10.7185 5.02731 10.7185C2.74333 10.7185 0.806296 8.90118 0.806296 6.6497C0.806296 4.56879 2.46707 2.83521 4.61934 2.62123V3.53299C4.61934 3.69735 4.70928 3.78728 4.80244 3.87722C4.88917 3.91754 4.93415 3.91754 5.02409 3.91754C5.06907 3.91754 5.15901 3.91754 5.20398 3.87722L7.58432 2.53129C7.71603 2.49098 7.76422 2.35763 7.76422 2.22738C7.76422 2.10333 7.71924 1.92966 7.58432 1.88934L5.20398 0.583733C5.16222 0.543417 5.07228 0.5 5.02409 0.5H4.98233C4.93736 0.5 4.88917 0.540316 4.80244 0.583733C4.70928 0.633352 4.61934 0.757401 4.61934 0.937271V1.84282C2.02056 2.05371 0 4.13462 0 6.6497C0 9.33225 2.24542 11.5 5.02409 11.5C7.80276 11.5 10.0032 9.32915 10.0032 6.6497C10.0032 6.47604 9.82332 6.30547 9.60167 6.30547Z" fill="#0D0D0D"/>
</svg>
