<svg width="26" height="26" viewBox="0 0 26 26" fill="none" xmlns="http://www.w3.org/2000/svg">
<circle cx="13" cy="13" r="13" fill="#0D0D0D"/>
<path d="M19 8.18186V11.5394C19 12.1664 18.751 12.7674 18.3077 13.2107L11.8645 19.6539C11.403 20.1154 10.6547 20.1154 10.1932 19.6539L6.34613 15.8069C5.88462 15.3454 5.88462 14.597 6.34613 14.1355L12.7892 7.69225C13.2325 7.24895 13.8336 7 14.4605 7H17.8181C18.4709 7 19 7.5291 19 8.18186Z" stroke="white" stroke-width="2" stroke-linecap="round" stroke-linejoin="round"/>
<path d="M15.5 12C16.3284 12 17 11.3284 17 10.5C17 9.67157 16.3284 9 15.5 9C14.6716 9 14 9.67157 14 10.5C14 11.3284 14.6716 12 15.5 12Z" fill="white"/>
<path d="M16 10L20 6" stroke="white" stroke-width="2" stroke-linecap="round" stroke-linejoin="round"/>
</svg>
