<svg width="15" height="18" viewBox="0 0 15 18" fill="none" xmlns="http://www.w3.org/2000/svg">
<path d="M6.1543 10.6074H8.92578L10.1074 12.1328C10.8486 11.2627 11.2676 9.95215 11.2676 8.22266C11.2676 4.89258 9.69922 3.08789 7.29297 3.08789C4.88672 3.08789 3.29688 4.89258 3.29688 8.22266C3.29688 11.5527 4.88672 13.3574 7.29297 13.3574C7.60449 13.3574 7.90527 13.3252 8.19531 13.2715L6.1543 10.6074ZM14.5547 8.22266C14.5547 10.9941 13.6094 13.1318 12.084 14.4746L14.2969 17.2891H11.2676L10.0215 15.7207C9.18359 16.0537 8.25977 16.2148 7.29297 16.2148C3.14648 16.2148 0.00976562 13.2715 0.00976562 8.22266C0.00976562 3.15234 3.14648 0.230469 7.29297 0.230469C11.3965 0.230469 14.5547 3.15234 14.5547 8.22266Z" fill="#0D0D0D"/>
</svg>
