<svg width="14" height="14" viewBox="0 0 14 14" fill="none" xmlns="http://www.w3.org/2000/svg">
<path d="M8.17157 13C8.17147 13.5523 7.7239 13.9999 7.17167 13.9999C6.61954 13.9998 6.17187 13.5522 6.17178 13L6.17247 8.17253L0.998991 8.17253C0.446722 8.17251 -0.00159234 7.72422 -0.0015923 7.17194C-0.00156303 6.61969 0.446739 6.17137 0.998991 6.17136L6.17247 6.17136L6.17178 0.99995C6.17178 0.447732 6.61948 0.000165274 7.17168 5.66815e-05C7.72396 5.6728e-05 8.17157 0.447665 8.17157 0.99995L8.17226 6.17136L12.9984 6.17205C13.5507 6.17205 13.999 6.62035 13.999 7.17263C13.9986 7.7246 13.5511 8.17249 12.9991 8.17253L8.17226 8.17253L8.17157 13Z" fill="#1D1E1F"/>
</svg>
