<svg width="19" height="18" viewBox="0 0 19 18" fill="none" xmlns="http://www.w3.org/2000/svg">
<path d="M9.21387 1.16113C9.39479 1.07355 9.60813 1.07358 9.78906 1.16113H9.79004L16.6133 4.48145C16.816 4.5805 16.9628 4.78559 16.9629 5.0293C16.9629 5.27245 16.8165 5.47906 16.6123 5.57812L16.6113 5.57715L9.79004 8.89746C9.69916 8.94165 9.60004 8.96381 9.50195 8.96387C9.40374 8.96387 9.30389 8.94171 9.21289 8.89746L2.39062 5.57812H2.38965C2.21224 5.49136 2.07765 5.32308 2.04688 5.11914L2.04102 5.03027L2.04688 4.94043C2.07766 4.73667 2.21244 4.56922 2.38965 4.48242L2.39062 4.48145L9.21289 1.16113H9.21387ZM4.09375 5.0293L9.50098 7.66113L14.9092 5.0293L9.50098 2.39746L4.09375 5.0293Z" fill="#C6CAD3" stroke="#C6CAD3" stroke-width="0.7" stroke-linejoin="round"/>
<path d="M2.36133 4.49805C2.54962 4.39391 2.77666 4.39011 2.96582 4.48145H2.9668L9.78906 7.80176H9.79004C9.99278 7.90082 10.1396 8.10588 10.1396 8.34961V16.293C10.1395 16.5232 10.0077 16.7211 9.81934 16.8252H9.81836C9.71959 16.8795 9.61007 16.9072 9.50098 16.9072C9.49209 16.9072 9.48337 16.905 9.47461 16.9043C9.38507 16.9006 9.2967 16.8802 9.21484 16.8408L9.21289 16.8398L2.39062 13.5205L2.38965 13.5195C2.18713 13.4203 2.04102 13.2153 2.04102 12.9717V5.0293C2.04117 4.79907 2.17293 4.60212 2.36133 4.49805ZM3.31738 12.5938L8.86328 15.293V8.72656L3.31738 6.02832V12.5938Z" fill="#C6CAD3" stroke="#C6CAD3" stroke-width="0.7" stroke-linejoin="round"/>
<path d="M16.1074 4.45117C16.2564 4.40005 16.4211 4.40362 16.5684 4.46289L16.6396 4.49707L16.708 4.54102C16.8595 4.65196 16.96 4.82867 16.96 5.03027V12.9727C16.9598 13.186 16.8477 13.3697 16.6836 13.4785L16.6104 13.5205L9.78711 16.8408H9.78613C9.70106 16.8818 9.60878 16.9029 9.51562 16.9053C9.5101 16.9055 9.50461 16.9072 9.49902 16.9072C9.39223 16.9072 9.28031 16.8813 9.17871 16.8242L9.17969 16.8232C8.99205 16.7186 8.86145 16.5225 8.86133 16.293V8.34961C8.86145 8.10673 9.00697 7.90086 9.21094 7.80176L16.0342 4.48145L16.1074 4.45117ZM10.1377 8.72754V15.292L15.6836 12.5947V6.02832L10.1377 8.72754Z" fill="#C6CAD3" stroke="#C6CAD3" stroke-width="0.7" stroke-linejoin="round"/>
</svg>
