<svg width="54" height="54" viewBox="0 0 54 54" fill="none" xmlns="http://www.w3.org/2000/svg">
<g clip-path="url(#clip0_11_6601)">
<path d="M27 9L30 3H24L27 9L30 3H24L27 9Z" fill="#2EC4B6"/>
<path d="M27 0.75C41.4964 0.75 53.25 12.5036 53.25 27C53.25 41.4964 41.4964 53.25 27 53.25C12.5036 53.25 0.75 41.4964 0.75 27C0.75 12.5036 12.5036 0.75 27 0.75ZM27 4.17676C14.3954 4.17676 4.17676 14.3954 4.17676 27C4.17676 39.6046 14.3954 49.8232 27 49.8232C39.6046 49.8232 49.8232 39.6046 49.8232 27C49.8232 14.3954 39.6046 4.17676 27 4.17676Z" fill="#DEF6F4" stroke="#DEF6F4" stroke-width="0.5"/>
<path d="M24.2452 25.0524L18.7397 39.6597L29.7506 28.5991L35.2616 13.9917L24.2452 25.0524Z" fill="#2EC4B6"/>
<path d="M24.2466 25.0524L29.752 28.5991L35.263 13.9917L24.2466 25.0524Z" fill="#2EC4B6"/>
</g>
<defs>
<clipPath id="clip0_11_6601">
<rect width="54" height="54" fill="white"/>
</clipPath>
</defs>
</svg>
