<svg width="108" height="129" viewBox="0 0 108 129" fill="none" xmlns="http://www.w3.org/2000/svg">
<ellipse cx="50" cy="121.539" rx="35.5" ry="6.5" fill="#EFEFEF"/>
<path d="M50 0C56.7484 1.09906e-07 63.2972 1.20351 69.4619 3.5752C75.4154 5.86555 80.7636 9.14414 85.3545 13.3193C89.9454 17.4945 93.5509 22.3581 96.0693 27.7725C98.6771 33.3801 99.9999 39.3345 100 45.4717C100 54.3503 98.1897 63.3685 94.6182 72.2725C91.6319 79.7197 87.3829 87.1727 81.9883 94.4238C72.3299 107.408 61.2355 116.776 55.4814 121.206C53.893 122.428 51.9464 123.04 50 123.04V123.039C48.0537 123.039 46.107 122.428 44.5186 121.205C38.7645 116.776 27.6703 107.406 18.0117 94.4219C12.617 87.1707 8.36813 79.7178 5.38184 72.2705C1.81034 63.3679 0 54.3503 0 45.4717C6.73798e-05 39.3345 1.32293 33.3787 3.93066 27.7725C6.44905 22.3581 10.0546 17.4945 14.6455 13.3193C19.2364 9.14414 24.5846 5.86555 30.5381 3.5752C36.7028 1.20352 43.2516 0 50 0ZM49.999 10.4355C40.4602 10.4357 31.4909 14.1488 24.7451 20.8926C17.9994 27.6364 14.2853 36.6009 14.2852 46.1387C14.2852 55.6767 17.9993 64.6419 24.7451 71.3857C31.4909 78.1295 40.4583 81.8427 49.999 81.8428C59.5399 81.8428 68.508 78.1296 75.2539 71.3857C81.9997 64.6419 85.7139 55.6766 85.7139 46.1387C85.7138 36.6009 81.9995 27.6363 75.2539 20.8926C68.508 14.1487 59.5399 10.4355 49.999 10.4355Z" fill="#DEF6F4"/>
<path d="M50 61L50 31" stroke="#DEF6F4" stroke-width="6" stroke-linecap="round"/>
<path d="M65 46L35 46" stroke="#DEF6F4" stroke-width="6" stroke-linecap="round"/>
<circle cx="83" cy="103" r="22.5" fill="white" stroke="#2EC4B6" stroke-width="5"/>
<path d="M74 103L79.9895 109L92 97" stroke="#2EC4B6" stroke-width="6" stroke-linecap="round" stroke-linejoin="round"/>
</svg>
