<svg width="14" height="14" viewBox="0 0 14 14" fill="none" xmlns="http://www.w3.org/2000/svg">
<g clip-path="url(#clip0_11_1276)">
<path d="M0.523329 6.47791C1.0494 5.94747 1.7837 5.75438 2.46101 5.90086V2.58951C2.46101 1.16244 3.60741 0.00390625 5.01464 0.00390625H8.98646C10.3959 0.00390625 11.5401 1.16465 11.5401 2.58951V5.90086C12.2174 5.7566 12.9495 5.94969 13.4756 6.48013C14.1748 7.18812 14.1748 8.33999 13.4756 9.04798C13.3506 9.17448 13.2082 9.27436 13.0547 9.3476V11.1653C13.0547 11.7068 12.6207 12.1463 12.0859 12.1463H11.9894L12.4081 13.307C12.5045 13.5756 12.3686 13.8752 12.1034 13.9728C12.0442 13.995 11.985 14.0039 11.9281 14.0039C11.7176 14.0039 11.5225 13.873 11.4458 13.6621L10.8978 12.1463H3.10545L2.55746 13.6621C2.48074 13.873 2.28566 14.0039 2.07523 14.0039C2.01605 14.0039 1.95687 13.9928 1.89987 13.9728C1.63465 13.8752 1.49656 13.5756 1.59519 13.307L2.01386 12.1463H1.91741C1.38257 12.1463 0.948567 11.7068 0.948567 11.1653V9.34982C0.795131 9.27658 0.652654 9.1767 0.52552 9.04798C-0.173713 8.33999 -0.173713 7.18812 0.52552 6.48013L0.523329 6.47791ZM10.5142 2.58729C10.5142 1.73504 9.82817 1.04037 8.98646 1.04037H5.01464C4.17293 1.04037 3.48685 1.73504 3.48685 2.58729V6.45349C3.48685 6.45349 3.50438 6.46903 3.51315 6.47791C3.96908 6.93954 4.22773 7.54988 4.24746 8.20238H9.75145C9.76898 7.54988 10.0276 6.94176 10.4858 6.47791C10.4945 6.46903 10.5033 6.46015 10.5142 6.45127V2.58729ZM12.0289 11.1054V9.45635C11.7615 9.39198 11.5094 9.2566 11.3012 9.04576C11.1017 8.84379 11.1017 8.5131 11.3012 8.31114C11.5006 8.10917 11.8272 8.10917 12.0267 8.31114C12.2262 8.5131 12.5506 8.5131 12.75 8.31114C13.0481 8.0093 13.0481 7.51659 12.75 7.21253C12.327 6.78419 11.6365 6.78419 11.2135 7.21253C10.9307 7.49883 10.7751 7.88057 10.7773 8.28228L10.7839 8.70619C10.7882 8.96586 10.6019 9.18336 10.3542 9.22553C10.3148 9.23663 10.2709 9.24107 10.2293 9.24107H3.77619C3.73454 9.24107 3.69508 9.23441 3.65563 9.22553C3.40575 9.1878 3.21505 8.96808 3.21943 8.70619L3.22601 8.2845C3.2282 7.87835 3.07257 7.49883 2.78981 7.21031C2.36676 6.78197 1.6763 6.78197 1.25325 7.21031C0.955143 7.51215 0.955143 8.00486 1.25325 8.30892C1.45272 8.51088 1.77713 8.51088 1.97659 8.30892C2.17606 8.10695 2.50266 8.10695 2.70213 8.30892C2.9016 8.51088 2.9016 8.84157 2.70213 9.04354C2.49609 9.25216 2.24182 9.38977 1.97659 9.45413V11.1031H12.0289V11.1054Z" fill="white"/>
</g>
<defs>
<clipPath id="clip0_11_1276">
<rect width="14" height="14" fill="white" transform="matrix(-1 0 0 1 14 0)"/>
</clipPath>
</defs>
</svg>
