<svg width="32" height="32" viewBox="0 0 32 32" fill="none" xmlns="http://www.w3.org/2000/svg">
<path d="M16 6C19.3137 6 22 8.68629 22 12C22 13.946 21.0726 15.6742 19.6367 16.7705C20.6434 17.2154 21.571 17.8424 22.3643 18.6357C24.0521 20.3236 25 22.6131 25 25C25 25 25 26 24 26C23.0006 26 23.0029 25.0013 23.0029 25C23.0029 23.1426 22.2655 21.3612 20.9521 20.0479C19.653 18.7488 17.8961 18.0139 16.0605 17.998C16.0404 17.9982 16.0202 18 16 18C15.9795 18 15.959 17.9983 15.9385 17.998C14.1033 18.0142 12.3467 18.749 11.0479 20.0479C9.73447 21.3612 8.99707 23.1426 8.99707 25C8.99708 25.0017 8.99915 26 8 26C7.00056 26 7 25.0011 7 25C7 22.6131 7.94792 20.3236 9.63574 18.6357C10.4288 17.8427 11.3559 17.2153 12.3623 16.7705C10.9268 15.6742 10 13.9457 10 12C10 8.68629 12.6863 6 16 6ZM16 8C13.7909 8 12 9.79086 12 12C12 14.2091 13.7909 16 16 16C18.2091 16 20 14.2091 20 12C20 9.79086 18.2091 8 16 8Z" fill="#1D1E1F"/>
</svg>
