<svg width="26" height="26" viewBox="0 0 26 26" fill="none" xmlns="http://www.w3.org/2000/svg">
<circle cx="13" cy="13" r="13" fill="#0D0D0D"/>
<path d="M13 7C13.6877 7 14.3502 7.12428 14.9717 7.36719C15.5724 7.602 16.1064 7.93616 16.5635 8.3584C17.0204 8.7806 17.3738 9.26602 17.6191 9.80176C17.8726 10.3555 18 10.9402 18 11.5439C17.9999 12.491 17.8098 13.4659 17.4238 14.4434C17.1005 15.2626 16.635 16.0968 16.0322 16.9199C14.9474 18.4015 13.6925 19.4795 13.042 19.9883L13 20L12.958 19.9883C12.3077 19.4798 11.0528 18.4017 9.96777 16.9199C9.36499 16.0968 8.89954 15.2626 8.57617 14.4434C8.19024 13.4661 8.00006 12.491 8 11.5439C8 10.9402 8.12742 10.3553 8.38086 9.80176C8.62617 9.26602 8.97955 8.7806 9.43652 8.3584C9.89357 7.93616 10.4276 7.602 11.0283 7.36719C11.6498 7.12428 12.3123 7 13 7Z" stroke="white" stroke-width="2" stroke-miterlimit="10"/>
<path d="M13 10C12.4658 10 11.9635 10.208 11.5858 10.5858C11.208 10.9635 11 11.4657 11 12C11 12.5343 11.208 13.0365 11.5858 13.4142C11.9635 13.792 12.4657 14 13 14C13.5343 14 14.0365 13.792 14.4142 13.4142C14.792 13.0365 15 12.5343 15 12C15 11.4657 14.792 10.9635 14.4142 10.5858C14.0365 10.208 13.5343 10 13 10Z" fill="white"/>
</svg>
