<svg width="108" height="122" viewBox="0 0 108 122" fill="none" xmlns="http://www.w3.org/2000/svg">
<g clip-path="url(#clip0_377_6833)">
<path d="M100.757 13.4788H93.3731V22.6622C93.3731 26.3377 90.3974 29.3279 86.7395 29.3279C83.0817 29.3279 80.1059 26.3377 80.1059 22.6622V13.4788H27.8926V22.6622C27.8926 26.3377 24.9168 29.3279 21.259 29.3279C17.6012 29.3279 14.6254 26.3377 14.6254 22.6622V13.4788H7.243C3.24267 13.4788 0 16.7371 0 20.7567V114.722C0 118.742 3.24267 122 7.243 122H100.757C104.757 122 108 118.742 108 114.722V20.7567C108 16.7371 104.757 13.4788 100.757 13.4788ZM102.103 114.417C102.103 115.333 101.365 116.075 100.453 116.075H7.54695C6.63509 116.075 5.8967 115.333 5.8967 114.417V44.3859H102.103V114.417Z" fill="#DEF6F4"/>
<path d="M21.259 26.9575C23.6195 26.9575 25.5336 25.0341 25.5336 22.6622V4.29526C25.5336 1.92341 23.6195 0 21.259 0C18.8985 0 16.9844 1.92341 16.9844 4.29526V22.6622C16.9844 25.0341 18.8985 26.9575 21.259 26.9575Z" fill="#DEF6F4"/>
<path d="M91.018 4.29526C91.018 1.92305 89.1042 0 86.7434 0C84.3826 0 82.4688 1.92305 82.4688 4.29526V22.6622C82.4688 25.0344 84.3826 26.9575 86.7434 26.9575C89.1042 26.9575 91.018 25.0344 91.018 22.6622V4.29526Z" fill="#DEF6F4"/>
<path d="M40.3594 94.2842L68.6436 65.9999" stroke="#2EC4B6" stroke-width="6" stroke-linecap="round"/>
<path d="M68.6406 94.2915L40.3564 66.0072" stroke="#2EC4B6" stroke-width="6" stroke-linecap="round"/>
</g>
<defs>
<clipPath id="clip0_377_6833">
<rect width="108" height="122" fill="white"/>
</clipPath>
</defs>
</svg>
