<svg width="98" height="98" viewBox="0 0 98 98" fill="none" xmlns="http://www.w3.org/2000/svg">
<rect width="98" height="98" rx="14" fill="url(#paint0_linear_181_6589)"/>
<path d="M49 72.9995C48.2604 72.9995 47.5208 72.7611 46.9171 72.2839C44.7306 70.5563 40.5147 66.9011 36.8444 61.8356C34.7944 59.0068 33.1798 56.0994 32.045 53.1941C30.6878 49.721 30 46.2032 30 42.7395C30 40.3452 30.5027 38.0216 31.4937 35.8345C32.4507 33.7222 33.8207 31.8249 35.5653 30.1961C37.3098 28.5673 39.342 27.2881 41.6043 26.3946C43.9469 25.4694 46.4356 25 49 25C51.5644 25 54.0531 25.4694 56.3957 26.3946C58.658 27.2881 60.6902 28.5673 62.4347 30.1961C64.1793 31.8249 65.5493 33.7222 66.5063 35.8345C67.4973 38.0222 68 40.3452 68 42.7395C68 46.2032 67.3122 49.721 65.955 53.1946C64.8202 56.0999 63.2055 59.0073 61.1556 61.8361C57.4853 66.9016 53.2694 70.5563 51.0829 72.2845C50.4792 72.7611 49.7396 73 49 73V72.9995Z" stroke="white" stroke-width="4" stroke-miterlimit="10" stroke-linejoin="round"/>
<circle cx="49" cy="43" r="6" stroke="white" stroke-width="4"/>
<defs>
<linearGradient id="paint0_linear_181_6589" x1="54" y1="98" x2="54" y2="0" gradientUnits="userSpaceOnUse">
<stop stop-color="#2EC4B6"/>
<stop offset="1" stop-color="#34DBBF"/>
</linearGradient>
</defs>
</svg>
