<svg width="14" height="17" viewBox="0 0 14 17" fill="none" xmlns="http://www.w3.org/2000/svg">
<path d="M4.29297 0.5H12.9989V16.5H4.29297" stroke="black" stroke-linecap="round" stroke-linejoin="round"/>
<path d="M1 8C0.723858 8 0.5 8.22386 0.5 8.5C0.5 8.77614 0.723858 9 1 9V8.5V8ZM9.82414 8.85355C10.0194 8.65829 10.0194 8.34171 9.82414 8.14645L6.64216 4.96447C6.4469 4.7692 6.13032 4.7692 5.93505 4.96447C5.73979 5.15973 5.73979 5.47631 5.93505 5.67157L8.76348 8.5L5.93505 11.3284C5.73979 11.5237 5.73979 11.8403 5.93505 12.0355C6.13032 12.2308 6.4469 12.2308 6.64216 12.0355L9.82414 8.85355ZM1 8.5V9H9.47059V8.5V8H1V8.5Z" fill="black"/>
</svg>
