<svg width="54" height="54" viewBox="0 0 54 54" fill="none" xmlns="http://www.w3.org/2000/svg">
<path d="M21.8574 0.71875C27.4785 0.71875 32.7649 2.90844 36.7402 6.88379C40.8439 10.9875 42.8945 16.3782 42.8945 21.7666C42.8945 25.8637 41.7094 29.9627 39.335 33.4961L39.165 33.749L39.1611 33.7451C38.4557 34.7676 37.6495 35.7412 36.7402 36.6504C35.7653 37.6263 34.7102 38.4948 33.5889 39.25C30.1487 41.5706 26.0974 42.8164 21.8574 42.8164C16.2354 42.8164 10.949 40.6267 6.97266 36.6504C2.99826 32.676 0.808594 27.3896 0.808594 21.7676C0.808603 16.1455 2.99828 10.8591 6.97266 6.88281C10.949 2.90843 16.2363 0.718758 21.8574 0.71875ZM21.8574 3.72949C17.0373 3.7295 12.5085 5.60577 9.10156 9.0127C5.69283 12.4196 3.81836 16.9503 3.81836 21.7686C3.81836 26.5868 5.69283 31.1176 9.10156 34.5244C12.5085 37.9313 17.0373 39.8076 21.8574 39.8076C26.6756 39.8076 31.2044 37.9313 34.6113 34.5244C41.6444 27.4913 41.6444 16.0458 34.6113 9.0127C32.9076 7.30897 30.9234 5.98871 28.7637 5.09277C26.6039 4.19874 24.2675 3.72949 21.8574 3.72949Z" fill="#DEF6F4" stroke="#DEF6F4" stroke-width="0.5"/>
<path d="M51.9932 46.2213L40.9331 35.1611C40.165 36.2558 39.2944 37.2915 38.3394 38.2485C37.3843 39.2036 36.3476 40.076 35.2539 40.846L46.3103 51.9024C47.0214 52.6135 47.9556 52.9685 48.8888 52.9685C49.822 52.9685 50.7581 52.6135 51.4673 51.9024L51.9923 51.3783C53.4126 49.9562 53.4126 47.6435 51.9923 46.2204L51.9932 46.2213Z" fill="#2EC4B6"/>
<path d="M21.8528 7.52341C13.9987 7.52341 7.60938 13.9127 7.60938 21.7669C7.60938 22.4912 8.19704 23.0789 8.92141 23.0789C9.64578 23.0789 10.2334 22.4912 10.2334 21.7669C10.2334 15.3595 15.4464 10.1465 21.8538 10.1465C22.5781 10.1465 23.1658 9.55887 23.1658 8.83449C23.1658 8.11012 22.5781 7.52246 21.8538 7.52246L21.8528 7.52341Z" fill="#2EC4B6"/>
</svg>
