<svg width="50" height="50" viewBox="0 0 50 50" fill="none" xmlns="http://www.w3.org/2000/svg">
<rect x="50" y="50" width="50" height="50" rx="25" transform="rotate(180 50 50)" fill="#2EC4B6"/>
<path d="M16 24C15.4477 24 15 24.4477 15 25C15 25.5523 15.4477 26 16 26L16 25L16 24ZM34.7071 25.7071C35.0976 25.3166 35.0976 24.6834 34.7071 24.2929L28.3431 17.9289C27.9526 17.5384 27.3195 17.5384 26.9289 17.9289C26.5384 18.3195 26.5384 18.9526 26.9289 19.3431L32.5858 25L26.9289 30.6569C26.5384 31.0474 26.5384 31.6805 26.9289 32.0711C27.3195 32.4616 27.9526 32.4616 28.3431 32.0711L34.7071 25.7071ZM16 25L16 26L34 26L34 25L34 24L16 24L16 25Z" fill="white"/>
</svg>
