<svg width="108" height="108" viewBox="0 0 108 108" fill="none" xmlns="http://www.w3.org/2000/svg">
<g clip-path="url(#clip0_235_8824)">
<path d="M2.57031 79.5176C2.57031 85.1807 7.13481 89.7676 12.7703 89.7676V105.143C12.7703 105.143 28.0703 105.143 28.0703 89.7676H94.3703C100.006 89.7676 104.57 85.1807 104.57 79.5176V23.1426H2.57031V79.5176Z" fill="white" stroke="#DEF6F4" stroke-width="6" stroke-linecap="round" stroke-linejoin="round"/>
<path d="M94.3703 2.57129H12.7703C7.13481 2.57129 2.57031 7.04629 2.57031 12.5713V22.5713H104.57V12.5713C104.57 7.04629 100.006 2.57129 94.3703 2.57129Z" fill="#DEF6F4" stroke="#DEF6F4" stroke-width="6" stroke-linecap="round" stroke-linejoin="round"/>
<path d="M16.7176 16.0716H13.5033C11.7291 16.0716 10.2891 14.6316 10.2891 12.8574C10.2891 11.0831 11.7291 9.64307 13.5033 9.64307H16.7176C18.4919 9.64307 19.9319 11.0831 19.9319 12.8574C19.9319 14.6316 18.4919 16.0716 16.7176 16.0716Z" fill="white"/>
<path d="M29.577 16.0716H26.3627C24.5884 16.0716 23.1484 14.6316 23.1484 12.8574C23.1484 11.0831 24.5884 9.64307 26.3627 9.64307H29.577C31.3513 9.64307 32.7913 11.0831 32.7913 12.8574C32.7913 14.6316 31.3513 16.0716 29.577 16.0716Z" fill="white"/>
<path d="M40.3594 70.1387L68.6436 41.8544" stroke="#2EC4B6" stroke-width="6" stroke-linecap="round"/>
<path d="M68.6406 70.1455L40.3564 41.8612" stroke="#2EC4B6" stroke-width="6" stroke-linecap="round"/>
</g>
<defs>
<clipPath id="clip0_235_8824">
<rect width="108" height="108" fill="white"/>
</clipPath>
</defs>
</svg>
