<svg width="116" height="129" viewBox="0 0 116 129" fill="none" xmlns="http://www.w3.org/2000/svg">
<ellipse cx="49" cy="121.539" rx="35.5" ry="6.5" fill="#EFEFEF"/>
<g clip-path="url(#clip0_412_8592)">
<path d="M55.8274 107.542L47.4479 78.7905C42.2639 77.9403 38.7488 77.6097 38.0978 77.5625H32.1445L42.0745 111.628C42.0745 111.628 42.0982 111.687 42.11 111.722C43.2936 115.394 47.2703 117.496 50.9749 116.41C54.6912 115.312 56.8808 111.392 55.8629 107.66C55.8629 107.625 55.8393 107.59 55.8393 107.554L55.8274 107.542Z" fill="#2EC4B6"/>
<path d="M111.136 43.1223C108.9 40.9615 106.13 39.6036 103.183 39.1903V13.1542C103.183 11.9144 102.461 10.7927 101.325 10.285C100.2 9.77723 98.8749 9.96616 97.9399 10.7809C78.5769 27.7132 43.165 31.7868 38.419 32.271C38.348 32.271 38.277 32.271 38.206 32.271H21.0445C20.9971 32.271 20.9498 32.271 20.9024 32.271C20.8788 32.271 20.8432 32.271 20.8196 32.271H20.7249C9.11424 32.4599 -0.188481 42.7798 0.000887489 55.2606C0.0955717 61.1999 2.30882 66.7732 6.22637 70.9649C10.2149 75.2157 15.5054 77.5654 21.1155 77.5654C21.222 77.5654 25.5538 77.5654 25.5538 77.5654L36.0519 113.555C36.0756 113.65 36.1111 113.733 36.1466 113.827C37.2473 117.11 39.5434 119.802 42.6088 121.431C44.5853 122.47 46.7394 123.002 48.9171 123.002C50.2072 123.002 51.4973 122.813 52.7637 122.447C56.1723 121.443 59.001 119.176 60.729 116.082C62.4215 113.048 62.8712 109.541 62.0072 106.187C61.9954 106.105 61.9717 106.022 61.948 105.951L54.4088 80.0923C67.6054 82.8317 85.8676 88.3223 97.9517 98.8902C98.5435 99.4097 99.2773 99.6695 100.035 99.6695C100.473 99.6695 100.922 99.575 101.337 99.3861C102.461 98.8784 103.195 97.7566 103.195 96.5168V70.3863C110.521 69.3709 116.131 62.605 116.001 54.5403C115.93 50.1951 114.166 46.027 111.136 43.1105V43.1223ZM16.9967 70.6107C10.9369 68.6388 6.42758 62.4633 6.32106 55.1662C6.2027 47.621 10.7475 41.174 16.9967 39.1903V70.5989V70.6107ZM96.8747 90.058C87.9152 83.7999 76.127 78.8407 61.735 75.2747C52.8465 73.0785 45.3191 72.0158 41.3779 71.5671V38.2929C45.3309 37.8206 52.8465 36.7225 61.7113 34.5026C76.1152 30.8895 87.9033 25.8948 96.8628 19.6249V90.0698L96.8747 90.058ZM103.183 63.9865V45.6137C104.485 45.9561 105.704 46.6528 106.746 47.6446C108.568 49.404 109.633 51.9545 109.681 54.6466C109.752 59.169 106.959 63.0065 103.183 63.9865Z" fill="#DEF6F4"/>
</g>
<circle cx="91" cy="103" r="22.5" fill="white" stroke="#2EC4B6" stroke-width="5"/>
<path d="M83 110.711L98.7093 95.0017" stroke="#2EC4B6" stroke-width="6" stroke-linecap="round"/>
<path d="M98.7109 110.715L83.0017 95.0056" stroke="#2EC4B6" stroke-width="6" stroke-linecap="round"/>
<defs>
<clipPath id="clip0_412_8592">
<rect width="116" height="113" fill="white" transform="translate(0 10)"/>
</clipPath>
</defs>
</svg>
