<svg width="126" height="127" viewBox="0 0 126 127" fill="none" xmlns="http://www.w3.org/2000/svg">
<ellipse cx="63" cy="118.5" rx="63" ry="7.51376" fill="#EFEFEF"/>
<g clip-path="url(#clip0_11_4053)">
<path d="M90.1111 59.2013L70.1522 22.9543C68.7508 20.4134 66.2335 18.8965 63.4115 18.8965C60.5896 18.8965 58.0722 20.4134 56.6709 22.9543L36.7119 59.2013C35.3298 61.7136 35.333 64.7093 36.7215 67.2184C38.1229 69.7466 40.6402 71.2571 43.4526 71.2571H83.3737C86.186 71.2571 88.7001 69.7466 90.1047 67.2184C91.4932 64.7124 91.4996 61.7136 90.1175 59.2013H90.1111ZM85.0091 64.2354C84.6628 64.8619 84.0503 65.234 83.3705 65.234H43.4494C42.7695 65.234 42.157 64.8619 41.8107 64.2354C41.4515 63.5899 41.4515 62.8171 41.8107 62.1683L61.7696 25.9214C62.116 25.2917 62.7285 24.9164 63.4115 24.9164C64.0946 24.9164 64.7071 25.2917 65.0534 25.9214L85.0123 62.1683C85.3683 62.8171 85.3683 63.5899 85.0123 64.2354H85.0091Z" fill="#2EC4B6"/>
<path d="M63.4085 34.9785C62.1723 34.9785 61.168 35.9745 61.168 37.2004V50.0144C61.168 51.2404 62.1723 52.2364 63.4085 52.2364C64.6448 52.2364 65.6491 51.2404 65.6491 50.0144V37.2004C65.6491 35.9745 64.6448 34.9785 63.4085 34.9785Z" fill="#2EC4B6"/>
<path d="M63.4085 53.5039C62.1723 53.5039 61.168 54.4999 61.168 55.7258V57.7779C61.168 59.0038 62.1723 59.9998 63.4085 59.9998C64.6448 59.9998 65.6491 59.0038 65.6491 57.7779V55.7258C65.6491 54.4999 64.6448 53.5039 63.4085 53.5039Z" fill="#2EC4B6"/>
<path d="M112.435 111.896L97.8957 8.25876C97.2255 3.47269 93.4383 0 88.8943 0H36.1012C31.5572 0 27.7732 3.47269 27.0998 8.25876L12.5635 111.896C12.3037 113.756 12.8489 115.62 14.061 117C15.177 118.269 16.7611 118.997 18.4126 118.997H41.8958C44.9134 118.997 47.4403 116.628 47.7738 113.482L48.9507 102.393C48.9956 101.961 49.2489 101.722 49.4029 101.722H75.5926C75.7497 101.722 75.9998 101.961 76.0447 102.393L77.2216 113.482C77.5551 116.624 80.0821 118.997 83.0996 118.997H106.583C108.234 118.997 109.818 118.269 110.934 117C112.15 115.616 112.695 113.756 112.432 111.896H112.435ZM32.5032 9.00291C32.795 6.91994 34.3086 5.4062 36.1012 5.4062H88.8975C90.6901 5.4062 92.2037 6.91994 92.4955 9.00291L103.328 86.2352H21.6675L32.5032 9.00291Z" fill="#DEF6F4"/>
</g>
<defs>
<clipPath id="clip0_11_4053">
<rect width="100" height="119" fill="white" transform="translate(12.5)"/>
</clipPath>
</defs>
</svg>
