<svg width="19" height="18" viewBox="0 0 19 18" fill="none" xmlns="http://www.w3.org/2000/svg">
<path d="M9.21191 1.16113C9.39283 1.07355 9.60618 1.07358 9.78711 1.16113H9.78809L16.6113 4.48145C16.8141 4.5805 16.9609 4.78559 16.9609 5.0293C16.9609 5.27245 16.8146 5.47906 16.6104 5.57812L16.6094 5.57715L9.78809 8.89746C9.69721 8.94165 9.59809 8.96381 9.5 8.96387C9.40178 8.96387 9.30194 8.94171 9.21094 8.89746L2.38867 5.57812H2.3877C2.21029 5.49136 2.07569 5.32308 2.04492 5.11914L2.03906 5.03027L2.04492 4.94043C2.0757 4.73667 2.21049 4.56922 2.3877 4.48242L2.38867 4.48145L9.21094 1.16113H9.21191ZM4.0918 5.0293L9.49902 7.66113L14.9072 5.0293L9.49902 2.39746L4.0918 5.0293Z" fill="white" stroke="white" stroke-width="0.7" stroke-linejoin="round"/>
<path d="M2.35938 4.49805C2.54766 4.39391 2.77471 4.39011 2.96387 4.48145H2.96484L9.78711 7.80176H9.78809C9.99083 7.90082 10.1376 8.10588 10.1377 8.34961V16.293C10.1375 16.5232 10.0058 16.7211 9.81738 16.8252H9.81641C9.71763 16.8795 9.60812 16.9072 9.49902 16.9072C9.49014 16.9072 9.48142 16.905 9.47266 16.9043C9.38312 16.9006 9.29474 16.8802 9.21289 16.8408L9.21094 16.8398L2.38867 13.5205L2.3877 13.5195C2.18518 13.4203 2.03906 13.2153 2.03906 12.9717V5.0293C2.03921 4.79907 2.17097 4.60212 2.35938 4.49805ZM3.31543 12.5938L8.86133 15.293V8.72656L3.31543 6.02832V12.5938Z" fill="white" stroke="white" stroke-width="0.7" stroke-linejoin="round"/>
<path d="M16.1084 4.45117C16.2574 4.40005 16.4221 4.40362 16.5693 4.46289L16.6406 4.49707L16.709 4.54102C16.8605 4.65196 16.9609 4.82867 16.9609 5.03027V12.9727C16.9608 13.186 16.8486 13.3697 16.6846 13.4785L16.6113 13.5205L9.78809 16.8408H9.78711C9.70203 16.8818 9.60976 16.9029 9.5166 16.9053C9.51108 16.9055 9.50559 16.9072 9.5 16.9072C9.3932 16.9072 9.28128 16.8813 9.17969 16.8242L9.18066 16.8232C8.99302 16.7186 8.86243 16.5225 8.8623 16.293V8.34961C8.86242 8.10673 9.00795 7.90086 9.21191 7.80176L16.0352 4.48145L16.1084 4.45117ZM10.1387 8.72754V15.292L15.6846 12.5947V6.02832L10.1387 8.72754Z" fill="white" stroke="white" stroke-width="0.7" stroke-linejoin="round"/>
</svg>
