<svg width="16" height="16" viewBox="0 0 16 16" fill="none" xmlns="http://www.w3.org/2000/svg">
<g clip-path="url(#clip0_11_1248)">
<path d="M4.73242 14.3682C4.51677 14.3682 4.34386 14.5468 4.34375 14.7646C4.34375 14.9826 4.5167 15.1621 4.73242 15.1621H11.2119C11.4276 15.1621 11.6006 14.9826 11.6006 14.7646C11.6005 14.5468 11.4276 14.3682 11.2119 14.3682H4.73242Z" fill="white" stroke="white" stroke-width="0.1"/>
<path d="M8.62207 5.05566C8.40647 5.05573 8.23351 5.23431 8.2334 5.45215V14.7656C8.23348 14.9835 8.40645 15.162 8.62207 15.1621C8.83774 15.1621 9.01067 14.9835 9.01074 14.7656V5.45215C9.01063 5.23427 8.83772 5.05566 8.62207 5.05566Z" fill="white" stroke="white" stroke-width="0.1"/>
<path d="M7.34082 5.04004C7.12522 5.0401 6.95226 5.21868 6.95215 5.43652V14.7637C6.95215 14.9816 7.12516 15.1601 7.34082 15.1602C7.55654 15.1602 7.72949 14.9816 7.72949 14.7637V5.43652C7.72938 5.21865 7.55647 5.04004 7.34082 5.04004Z" fill="white" stroke="white" stroke-width="0.1"/>
<path d="M7.62891 4.90527C7.62753 4.92147 7.62598 4.94132 7.62598 4.96289V5.00977C7.62598 5.22679 7.79731 5.4047 8.01172 5.40625V5.40723H8.09082C8.30634 5.407 8.47949 5.2276 8.47949 5.00977C8.47941 4.93667 8.45917 4.86889 8.42676 4.81055C8.50779 4.50898 8.76604 4.21766 9.1582 3.98047C9.55682 3.73945 10.087 3.55724 10.6855 3.47754C10.9107 3.44736 11.1495 3.43166 11.3936 3.43164C12.1001 3.43164 12.7589 3.56994 13.2773 3.79688C13.7616 4.00889 14.1158 4.29601 14.2803 4.61328H11.2344C11.0188 4.61328 10.846 4.79201 10.8457 5.00977C10.8457 5.22774 11.0187 5.40723 11.2344 5.40723H14.7705C14.9862 5.40723 15.1592 5.22774 15.1592 5.00977C15.159 4.33627 14.7363 3.74185 14.0586 3.31836C13.3803 2.89458 12.441 2.63776 11.3916 2.6377C11.1132 2.6377 10.8395 2.65398 10.582 2.69043C9.75459 2.80232 9.04322 3.07437 8.52539 3.45312C8.00753 3.83191 7.6809 4.32022 7.63184 4.86426L7.63086 4.86914C7.63082 4.87742 7.63035 4.88822 7.62891 4.90527Z" fill="white" stroke="white" stroke-width="0.1"/>
<path d="M10.9287 0.892578C10.1869 0.829624 9.38972 1.08886 8.71582 1.61035C8.27978 1.94734 7.92564 2.36668 7.69434 2.82324C7.60767 2.99242 7.65302 3.19851 7.79492 3.31543L7.86133 3.35938C8.0522 3.4618 8.28876 3.38379 8.3877 3.1875V3.18848C8.56558 2.83776 8.84225 2.5102 9.18652 2.24512C9.73635 1.81875 10.4058 1.61634 10.9697 1.69727C11.1865 1.72863 11.3775 1.79972 11.5361 1.90527L10.4131 2.75781C10.3103 2.82801 10.2412 2.94881 10.2412 3.08496C10.2412 3.3026 10.4113 3.48134 10.6299 3.48145H10.6797V3.47461C10.7466 3.46572 10.8115 3.4406 10.8643 3.39941V3.39844L12.3701 2.25586C12.4533 2.19275 12.5096 2.09834 12.5225 1.99609L12.5264 1.91699C12.5221 1.83894 12.4946 1.76311 12.4482 1.70117C12.1279 1.26479 11.6519 0.992366 11.0762 0.910156L10.9287 0.892578Z" fill="white" stroke="white" stroke-width="0.1"/>
<path d="M11.4941 4.71484C10.1899 3.69573 8.48581 3.68766 7.70312 4.7373C7.641 4.82 7.61263 4.92794 7.625 5.0293C7.63756 5.13443 7.69407 5.22968 7.77441 5.29297L11.9229 8.53711L11.9238 8.53613C11.9922 8.59014 12.0758 8.61914 12.1602 8.61914H12.21V8.61328C12.2114 8.61306 12.2134 8.61354 12.2148 8.61328V8.6123C12.3175 8.59876 12.4095 8.54227 12.4707 8.46094C13.2522 7.41209 12.7985 5.73417 11.4941 4.71484ZM9.35938 4.73438H9.40918C9.91956 4.73438 10.5052 4.93795 11.0234 5.34277C11.8507 5.98805 12.2306 6.92677 12.0303 7.61523L8.61426 4.94531C8.82194 4.81302 9.07782 4.74009 9.35938 4.73242V4.73438Z" fill="white" stroke="white" stroke-width="0.1"/>
<path d="M4.60449 2.59473C3.55506 2.59479 2.6158 2.85161 1.9375 3.27539C1.25977 3.69888 0.837109 4.2933 0.836914 4.9668C0.836914 5.18477 1.00987 5.36426 1.22559 5.36426H4.76465C4.98037 5.36426 5.15332 5.18477 5.15332 4.9668C5.15307 4.74904 4.98021 4.57031 4.76465 4.57031H1.71875C1.88327 4.25305 2.23736 3.9659 2.72168 3.75391C3.24001 3.52703 3.89807 3.38872 4.60449 3.38867C4.84869 3.38867 5.08522 3.40438 5.31055 3.43457C5.91065 3.51568 6.44153 3.69898 6.83984 3.94043C7.23191 4.17812 7.48909 4.46897 7.56738 4.77051C7.53508 4.82812 7.51473 4.89335 7.51465 4.9668C7.51465 5.18477 7.6876 5.36426 7.90332 5.36426H7.98145C8.19716 5.36426 8.37012 5.18477 8.37012 4.9668V4.91992C8.37011 4.87652 8.36711 4.8389 8.36426 4.8125L8.33301 4.61328C8.23063 4.15316 7.9245 3.73904 7.47168 3.4082C6.95421 3.03016 6.24287 2.75797 5.41406 2.64746C5.154 2.61102 4.8829 2.59473 4.60449 2.59473Z" fill="white" stroke="white" stroke-width="0.1"/>
<path d="M7.27832 1.56738C6.55968 1.01143 5.70124 0.75407 4.91895 0.867188C4.41522 0.939104 3.98738 1.15632 3.67383 1.50195L3.54688 1.6582C3.48549 1.74307 3.45709 1.84789 3.47266 1.95312C3.48804 2.05711 3.54347 2.15286 3.625 2.21387L5.13086 3.35645C5.19648 3.40756 5.28075 3.43652 5.3623 3.43652C5.57789 3.43637 5.75098 3.25694 5.75098 3.03906C5.75092 2.89832 5.67825 2.77264 5.56836 2.70215L4.45801 1.86035C4.61817 1.75487 4.80622 1.68266 5.02246 1.65137C5.58652 1.57324 6.25328 1.77294 6.80566 2.19922C7.26225 2.55194 7.57898 2.99288 7.72754 3.43164C7.87568 3.86915 7.85601 4.30127 7.64648 4.64453L7.61719 4.69043L7.59082 4.72852L7.58984 4.73047C7.46318 4.90459 7.49676 5.15456 7.6709 5.28516L7.67188 5.28418C7.74092 5.33838 7.82407 5.36523 7.9043 5.36523H7.90723C8.02508 5.36509 8.14378 5.31063 8.21875 5.20508V5.2041C8.23823 5.17832 8.25841 5.15007 8.27539 5.12109V5.12012C8.28255 5.11011 8.28821 5.10203 8.29297 5.09473L8.30469 5.07715C8.30566 5.07574 8.30654 5.07396 8.30762 5.07227C8.3086 5.07072 8.31095 5.06763 8.3125 5.06445V5.06348C8.95733 4.00751 8.49993 2.50768 7.27832 1.56738Z" fill="white" stroke="white" stroke-width="0.1"/>
<path d="M8.29297 4.69336C7.51001 3.6445 5.80582 3.65301 4.50195 4.67188C3.88228 5.15492 3.43411 5.79878 3.24121 6.48145C3.05 7.15881 3.12357 7.8064 3.45508 8.31738L3.52539 8.41797C3.59758 8.51258 3.70325 8.56477 3.81152 8.57129L3.81543 8.57617H3.83691C3.91769 8.57607 4.00157 8.55055 4.07324 8.49316L8.22266 5.25C8.30299 5.18672 8.35852 5.09145 8.37109 4.98633C8.38026 4.90889 8.36923 4.82965 8.33496 4.75977L8.29297 4.69336ZM4.97559 5.30273C5.80401 4.65653 6.7892 4.52626 7.38379 4.90527L3.9668 7.5752C3.90311 7.3537 3.89691 7.10212 3.95508 6.83203L3.9873 6.70312C4.13577 6.18189 4.48419 5.68562 4.97559 5.30273Z" fill="white" stroke="white" stroke-width="0.1"/>
</g>
<defs>
<clipPath id="clip0_11_1248">
<rect width="16" height="16" fill="white" transform="matrix(-1 0 0 1 16 0)"/>
</clipPath>
</defs>
</svg>
