<svg width="16" height="16" viewBox="0 0 16 16" fill="none" xmlns="http://www.w3.org/2000/svg">
<g clip-path="url(#clip0_11_1239)">
<path d="M7.89941 0.306641C8.00031 0.283886 8.10783 0.295171 8.20215 0.34082L15.0254 3.66113C15.166 3.72986 15.2626 3.86906 15.2627 4.0293C15.2627 4.18922 15.1665 4.32885 15.0254 4.39746L8.20215 7.71777C8.13922 7.74835 8.07046 7.76361 8.00195 7.76367C7.93327 7.76367 7.86386 7.74844 7.80078 7.71777L0.978516 4.39844H0.977539C0.837022 4.32973 0.74041 4.19037 0.740234 4.03027C0.740234 3.87013 0.837082 3.73094 0.977539 3.66211L0.978516 3.66113L7.80078 0.34082L7.89941 0.306641ZM2.13672 4.0293L8.00098 6.88379L13.8652 4.0293L8.00098 1.1748L2.13672 4.0293Z" fill="white" stroke="white" stroke-width="0.3" stroke-linejoin="round"/>
<path d="M0.958008 3.67188C1.08821 3.60004 1.24712 3.59754 1.37891 3.66113H1.37988L8.20215 6.98145L8.25293 7.01074C8.36556 7.0856 8.4394 7.20945 8.43945 7.34961V15.293C8.43928 15.4445 8.35273 15.5786 8.22266 15.6504C8.15415 15.6881 8.07725 15.707 8.00098 15.707C7.99294 15.707 7.9853 15.7044 7.97754 15.7031C7.91682 15.6999 7.85635 15.6879 7.80078 15.6611V15.6602L0.978516 12.3408L0.977539 12.3398C0.837076 12.271 0.740234 12.1318 0.740234 11.9717V4.0293C0.740385 3.87769 0.827839 3.74367 0.958008 3.67188ZM1.61719 11.7178L7.56348 14.6123V7.60254L1.61719 4.70898V11.7178Z" fill="white" stroke="white" stroke-width="0.3" stroke-linejoin="round"/>
<path d="M14.6211 3.66113C14.7535 3.59671 14.913 3.60016 15.043 3.67188C15.1735 3.74406 15.2598 3.87852 15.2598 4.03027V11.9727C15.2596 12.1328 15.163 12.2721 15.0225 12.3408L8.2002 15.6602L8.19922 15.6611C8.13636 15.6914 8.06788 15.707 7.99902 15.707C7.92424 15.707 7.84761 15.6881 7.77832 15.6494V15.6504C7.6479 15.5783 7.56067 15.4446 7.56055 15.293V7.34961C7.56066 7.18969 7.65758 7.04996 7.79883 6.98145L14.6211 3.66113ZM8.4375 7.60156V14.6123L14.3838 11.7188V4.70898L8.4375 7.60156Z" fill="white" stroke="white" stroke-width="0.3" stroke-linejoin="round"/>
</g>
<defs>
<clipPath id="clip0_11_1239">
<rect width="16" height="16" fill="white"/>
</clipPath>
</defs>
</svg>
