<svg width="16" height="16" viewBox="0 0 16 16" fill="none" xmlns="http://www.w3.org/2000/svg">
<path d="M15.9498 6.31186C15.8286 5.94805 15.5146 5.68775 15.1276 5.63295L10.833 5.02101L8.91345 1.21089C8.74093 0.868385 8.39121 0.655273 8.00108 0.655273C7.61095 0.655273 7.26123 0.868385 7.0887 1.21089L5.16758 5.02254L0.873043 5.63447C0.487575 5.68927 0.172052 5.94957 0.0508162 6.31338C-0.0704195 6.67719 0.0290559 7.06841 0.308831 7.33632L3.41588 10.3031L2.68225 14.4923C2.61697 14.8698 2.77085 15.2428 3.08793 15.468C3.26667 15.5944 3.47495 15.6598 3.68478 15.6598C3.84643 15.6598 4.00963 15.6218 4.15884 15.5442L7.99952 13.5668L11.8402 15.5442C12.1853 15.7223 12.5972 15.6933 12.9127 15.468C13.2282 15.2428 13.3836 14.8698 13.3184 14.4923L12.5847 10.3031L15.6918 7.33632C15.9715 7.06993 16.0695 6.67719 15.9498 6.31338V6.31186Z" fill="#EAEAEA"/>
<path d="M8 13.5664H7.99902L4.15918 15.5439C4.00997 15.6216 3.84622 15.6602 3.68457 15.6602C3.47481 15.6601 3.26658 15.5941 3.08789 15.4678C2.77091 15.2425 2.61735 14.8696 2.68262 14.4922L3.41602 10.3027L0.308594 7.33594C0.0290766 7.06806 -0.0703627 6.67713 0.0507812 6.31348C0.172014 5.94967 0.487591 5.68957 0.873047 5.63477L5.16797 5.02246L7.08887 1.21094C7.26124 0.868766 7.61031 0.655661 8 0.655273V13.5664Z" fill="#FEBD0B"/>
</svg>
