<svg width="50" height="50" viewBox="0 0 50 50" fill="none" xmlns="http://www.w3.org/2000/svg">
<rect width="50" height="50" rx="25" fill="#2EC4B6"/>
<path d="M34 26C34.5523 26 35 25.5523 35 25C35 24.4477 34.5523 24 34 24L34 25L34 26ZM15.2929 24.2929C14.9024 24.6834 14.9024 25.3166 15.2929 25.7071L21.6569 32.0711C22.0474 32.4616 22.6805 32.4616 23.0711 32.0711C23.4616 31.6805 23.4616 31.0474 23.0711 30.6569L17.4142 25L23.0711 19.3431C23.4616 18.9526 23.4616 18.3195 23.0711 17.9289C22.6805 17.5384 22.0474 17.5384 21.6569 17.9289L15.2929 24.2929ZM34 25L34 24L16 24L16 25L16 26L34 26L34 25Z" fill="white"/>
</svg>
