<svg width="100" height="129" viewBox="0 0 100 129" fill="none" xmlns="http://www.w3.org/2000/svg">
<ellipse cx="50" cy="121.538" rx="35.5" ry="6.5" fill="#EFEFEF"/>
<path d="M50 0C56.7484 1.09906e-07 63.2972 1.20351 69.4619 3.5752C75.4154 5.86555 80.7636 9.14414 85.3545 13.3193C89.9454 17.4945 93.5509 22.3581 96.0693 27.7725C98.6771 33.3801 99.9999 39.3345 100 45.4717C100 54.3503 98.1897 63.3685 94.6182 72.2725C91.6319 79.7197 87.3829 87.1727 81.9883 94.4238C72.3299 107.408 61.2355 116.776 55.4814 121.206C53.893 122.428 51.9464 123.04 50 123.04V123.039C48.0537 123.039 46.107 122.428 44.5186 121.205C38.7645 116.776 27.6703 107.406 18.0117 94.4219C12.617 87.1707 8.36813 79.7178 5.38184 72.2705C1.81034 63.3679 0 54.3503 0 45.4717C6.73798e-05 39.3345 1.32293 33.3787 3.93066 27.7725C6.44905 22.3581 10.0546 17.4945 14.6455 13.3193C19.2364 9.14414 24.5846 5.86555 30.5381 3.5752C36.7028 1.20352 43.2516 0 50 0ZM49.999 10.4355C40.4602 10.4357 31.4909 14.1488 24.7451 20.8926C17.9994 27.6364 14.2853 36.6009 14.2852 46.1387C14.2852 55.6767 17.9993 64.6419 24.7451 71.3857C31.4909 78.1295 40.4583 81.8427 49.999 81.8428C59.5399 81.8428 68.508 78.1296 75.2539 71.3857C81.9997 64.6419 85.7139 55.6766 85.7139 46.1387C85.7138 36.6009 81.9995 27.6363 75.2539 20.8926C68.508 14.1487 59.5399 10.4355 49.999 10.4355Z" fill="#DEF6F4"/>
<path d="M46.56 55.4381C46.62 47.7581 48.9 45.4181 52.68 43.0781C55.2 41.5181 57.12 39.3581 57.12 36.2381C57.12 32.6381 54.3 30.2981 50.76 30.2381C47.58 30.2981 44.52 32.2181 44.28 36.5981H37.92C38.16 29.0981 43.8 25.0181 50.76 25.0781C58.38 25.0181 63.48 29.5781 63.48 36.3581C63.48 40.9781 61.2 44.1581 57.48 46.4381C54 48.5381 52.62 50.6981 52.56 55.4381V55.7981H46.56V55.4381ZM45.6 64.3181C45.6 61.9781 47.52 60.1181 49.8 60.1181C52.02 60.1181 53.94 61.9781 53.88 64.3181C53.94 66.5981 52.02 68.4581 49.8 68.3981C47.52 68.4581 45.6 66.5981 45.6 64.3181Z" fill="#2EC4B6"/>
</svg>
