<svg width="16" height="14" viewBox="0 0 16 14" fill="none" xmlns="http://www.w3.org/2000/svg">
<path d="M8.01172 3.90039C6.16547 3.90039 4.66529 5.41012 4.66504 7.2666C4.66504 9.1233 6.16531 10.6338 8.01172 10.6338C9.86069 10.6337 11.3574 9.1232 11.3574 7.2666C11.3572 5.41016 9.85791 3.90046 8.01172 3.90039ZM8.01172 4.75098C9.38565 4.75105 10.5088 5.88278 10.5088 7.26465C10.5087 8.64638 9.38308 9.77825 8.01172 9.77832C6.6403 9.77832 5.51474 8.64642 5.51465 7.26465C5.51465 5.8828 6.64024 4.75098 8.01172 4.75098Z" fill="white" stroke="white" stroke-width="0.2"/>
<path d="M5.72461 0.900391C5.10143 0.900569 4.52865 1.26681 4.25391 1.81738L4.20215 1.92969L3.96777 2.52051H2.55371C1.63995 2.52051 0.894531 3.27139 0.894531 4.18945V11.4346C0.921983 12.3495 1.665 13.0995 2.5791 13.0996H13.4414C14.355 13.0995 15.0994 12.3495 15.0996 11.4316V4.18945C15.0996 3.27143 14.3551 2.52057 13.4414 2.52051H12.0273L11.793 1.92969C11.543 1.28946 10.9613 0.900391 10.2695 0.900391H5.72461ZM10.2979 1.75098C10.6193 1.75098 10.897 1.9356 11.0391 2.24219L11.3477 3.09766L11.3486 3.10059C11.3803 3.18023 11.4304 3.25041 11.501 3.2998C11.5718 3.34934 11.6577 3.37402 11.7539 3.37402H13.4414C13.8802 3.37409 14.251 3.74628 14.251 4.18945V11.4316C14.2508 11.8747 13.8801 12.247 13.4414 12.2471H2.58398C2.14548 12.2468 1.77559 11.8745 1.77539 11.4316V4.18945C1.77539 3.7464 2.14536 3.3743 2.58398 3.37402H4.27246C4.43837 3.37384 4.60888 3.27435 4.67676 3.10059L5.01465 2.2373V2.23633C5.1271 1.93982 5.42418 1.75116 5.75293 1.75098H10.2979Z" fill="white" stroke="white" stroke-width="0.2"/>
</svg>
