<svg width="156" height="52" viewBox="0 0 156 52" fill="none" xmlns="http://www.w3.org/2000/svg">
<g filter="url(#filter0_d_11_3316)">
<mask id="path-1-inside-1_11_3316" fill="white">
<path d="M130 4C138.837 4 146 11.1634 146 20C146 28.8366 138.837 36 130 36H32C24.6875 36 18.521 31.0943 16.6113 24.3945L10.5 20.8662C9.83333 20.4813 9.83333 19.5187 10.5 19.1338L16.6113 15.6045C18.5213 8.90515 24.6878 4 32 4H130Z"/>
</mask>
<path d="M130 4C138.837 4 146 11.1634 146 20C146 28.8366 138.837 36 130 36H32C24.6875 36 18.521 31.0943 16.6113 24.3945L10.5 20.8662C9.83333 20.4813 9.83333 19.5187 10.5 19.1338L16.6113 15.6045C18.5213 8.90515 24.6878 4 32 4H130Z" fill="white"/>
<path d="M130 36V37V36ZM16.6113 24.3945L17.573 24.1204L17.462 23.731L17.1113 23.5285L16.6113 24.3945ZM10.5 20.8662L10 21.7322L10 21.7322L10.5 20.8662ZM10.5 19.1338L11 19.9998L11.0001 19.9998L10.5 19.1338ZM16.6113 15.6045L17.1114 16.4705L17.462 16.268L17.573 15.8787L16.6113 15.6045ZM130 4V5C138.284 5 145 11.7157 145 20H146H147C147 10.6112 139.389 3 130 3V4ZM146 20H145C145 28.2843 138.284 35 130 35V36V37C139.389 37 147 29.3888 147 20H146ZM130 36V35H32V36V37H130V36ZM32 36V35C25.146 35 19.3635 30.4021 17.573 24.1204L16.6113 24.3945L15.6496 24.6686C17.6784 31.7866 24.229 37 32 37V36ZM16.6113 24.3945L17.1113 23.5285L11 20.0002L10.5 20.8662L10 21.7322L16.1113 25.2606L16.6113 24.3945ZM10.5 20.8662L11 20.0002L11 19.9998L10.5 19.1338L10 18.2678C8.66667 19.0376 8.66667 20.9624 10 21.7322L10.5 20.8662ZM10.5 19.1338L11.0001 19.9998L17.1114 16.4705L16.6113 15.6045L16.1112 14.7385L9.9999 18.2678L10.5 19.1338ZM16.6113 15.6045L17.573 15.8787C19.3637 9.59747 25.1463 5 32 5V4V3C24.2293 3 17.6788 8.21283 15.6496 15.3303L16.6113 15.6045ZM32 4V5H130V4V3H32V4Z" fill="#EAEAEA" mask="url(#path-1-inside-1_11_3316)"/>
</g>
<defs>
<filter id="filter0_d_11_3316" x="0" y="0" width="156" height="52" filterUnits="userSpaceOnUse" color-interpolation-filters="sRGB">
<feFlood flood-opacity="0" result="BackgroundImageFix"/>
<feColorMatrix in="SourceAlpha" type="matrix" values="0 0 0 0 0 0 0 0 0 0 0 0 0 0 0 0 0 0 127 0" result="hardAlpha"/>
<feOffset dy="6"/>
<feGaussianBlur stdDeviation="5"/>
<feComposite in2="hardAlpha" operator="out"/>
<feColorMatrix type="matrix" values="0 0 0 0 0.694596 0 0 0 0 0.714547 0 0 0 0 0.764423 0 0 0 0.2 0"/>
<feBlend mode="multiply" in2="BackgroundImageFix" result="effect1_dropShadow_11_3316"/>
<feBlend mode="normal" in="SourceGraphic" in2="effect1_dropShadow_11_3316" result="shape"/>
</filter>
</defs>
</svg>
