<svg width="156" height="52" viewBox="0 0 156 52" fill="none" xmlns="http://www.w3.org/2000/svg">
<g filter="url(#filter0_d_11_2284)">
<mask id="path-1-inside-1_11_2284" fill="white">
<path d="M124 4C131.312 4 137.478 8.90528 139.388 15.6045L145.5 19.1338C146.167 19.5187 146.167 20.4813 145.5 20.8662L139.388 24.3945C137.478 31.0942 131.312 36 124 36H26C17.1634 36 10 28.8366 10 20C10 11.1634 17.1634 4 26 4H124Z"/>
</mask>
<path d="M124 4C131.312 4 137.478 8.90528 139.388 15.6045L145.5 19.1338C146.167 19.5187 146.167 20.4813 145.5 20.8662L139.388 24.3945C137.478 31.0942 131.312 36 124 36H26C17.1634 36 10 28.8366 10 20C10 11.1634 17.1634 4 26 4H124Z" fill="white"/>
<path d="M139.388 15.6045L138.426 15.8787L138.537 16.268L138.888 16.4705L139.388 15.6045ZM145.5 19.1338L145 19.9998L145 19.9998L145.5 19.1338ZM145.5 20.8662L146 21.7323L146 21.7322L145.5 20.8662ZM139.388 24.3945L138.888 23.5285L138.537 23.7309L138.426 24.1204L139.388 24.3945ZM124 36V37V36ZM26 4V3V4ZM124 4V5C130.854 5 136.635 9.59752 138.426 15.8787L139.388 15.6045L140.349 15.3303C138.32 8.21304 131.771 3 124 3V4ZM139.388 15.6045L138.888 16.4705L145 19.9998L145.5 19.1338L146 18.2678L139.888 14.7385L139.388 15.6045ZM145.5 19.1338L145 19.9998V20.0002L145.5 20.8662L146 21.7322C147.333 20.9624 147.333 19.0376 146 18.2678L145.5 19.1338ZM145.5 20.8662L145 20.0001L138.888 23.5285L139.388 24.3945L139.888 25.2606L146 21.7323L145.5 20.8662ZM139.388 24.3945L138.426 24.1204C136.635 30.402 130.854 35 124 35V36V37C131.771 37 138.321 31.7864 140.349 24.6687L139.388 24.3945ZM124 36V35H26V36V37H124V36ZM26 36V35C17.7157 35 11 28.2843 11 20H10H9C9 29.3888 16.6112 37 26 37V36ZM10 20H11C11 11.7157 17.7157 5 26 5V4V3C16.6112 3 9 10.6112 9 20H10ZM26 4V5H124V4V3H26V4Z" fill="#EAEAEA" mask="url(#path-1-inside-1_11_2284)"/>
</g>
<defs>
<filter id="filter0_d_11_2284" x="0" y="0" width="156" height="52" filterUnits="userSpaceOnUse" color-interpolation-filters="sRGB">
<feFlood flood-opacity="0" result="BackgroundImageFix"/>
<feColorMatrix in="SourceAlpha" type="matrix" values="0 0 0 0 0 0 0 0 0 0 0 0 0 0 0 0 0 0 127 0" result="hardAlpha"/>
<feOffset dy="6"/>
<feGaussianBlur stdDeviation="5"/>
<feComposite in2="hardAlpha" operator="out"/>
<feColorMatrix type="matrix" values="0 0 0 0 0.694596 0 0 0 0 0.714547 0 0 0 0 0.764423 0 0 0 0.2 0"/>
<feBlend mode="multiply" in2="BackgroundImageFix" result="effect1_dropShadow_11_2284"/>
<feBlend mode="normal" in="SourceGraphic" in2="effect1_dropShadow_11_2284" result="shape"/>
</filter>
</defs>
</svg>
