<svg width="98" height="22" viewBox="0 0 98 22" fill="none" xmlns="http://www.w3.org/2000/svg">
<path d="M4.61523 3.9624V19.7999H1.33398V3.9624H4.61523Z" fill="white"/>
<path d="M6.67148 6.6749V3.9624H19.6434V6.6749H14.7871V19.7999H11.5277V6.6749H6.67148Z" fill="white"/>
<path d="M26.8402 19.7999V3.9624H33.0527C36.6621 3.9624 38.7184 6.17178 38.7184 9.2999C38.7184 12.4718 36.6184 14.6374 32.9652 14.6374H30.1215V19.7999H26.8402ZM30.1215 11.9905H32.4402C34.3871 11.9905 35.3277 10.8968 35.3277 9.2999C35.3277 7.7249 34.3871 6.65303 32.4402 6.65303H30.1215V11.9905Z" fill="white"/>
<path d="M40.7965 19.7999V3.9624H44.0777V17.0874H50.9027V19.7999H40.7965Z" fill="white"/>
<path d="M79.9746 9.4749C79.7121 7.7249 78.3559 6.65303 76.5184 6.65303C74.0465 6.65303 72.4277 8.55615 72.4277 11.8812C72.4277 15.2937 74.0684 17.1093 76.4965 17.1093C78.3121 17.1093 79.6465 16.103 79.9746 14.3968L83.2996 14.4187C82.9277 17.3499 80.4777 20.0187 76.4527 20.0187C72.209 20.0187 69.0809 17.0437 69.0809 11.8812C69.0809 6.71865 72.2746 3.74365 76.4527 3.74365C80.1059 3.74365 82.8621 5.84365 83.2996 9.4749H79.9746Z" fill="white"/>
<path d="M85.5965 19.7999V3.9624H96.2277V6.6749H88.8777V10.5249H95.6809V13.2374H88.8777V17.0874H96.2496V19.7999H85.5965Z" fill="white"/>
<path d="M54.1328 19.8V7.66668L59.7328 3.93335L65.3328 7.66668V19.8" stroke="white" stroke-width="3.26667"/>
</svg>
