<svg width="98" height="22" viewBox="0 0 98 22" fill="none" xmlns="http://www.w3.org/2000/svg">
<path d="M4.61719 3.9624V19.7999H1.33594V3.9624H4.61719Z" fill="#0D0D0D"/>
<path d="M6.67344 6.6749V3.9624H19.6453V6.6749H14.7891V19.7999H11.5297V6.6749H6.67344Z" fill="#0D0D0D"/>
<path d="M26.8422 19.7999V3.9624H33.0547C36.6641 3.9624 38.7203 6.17178 38.7203 9.2999C38.7203 12.4718 36.6203 14.6374 32.9672 14.6374H30.1234V19.7999H26.8422ZM30.1234 11.9905H32.4422C34.3891 11.9905 35.3297 10.8968 35.3297 9.2999C35.3297 7.7249 34.3891 6.65303 32.4422 6.65303H30.1234V11.9905Z" fill="#0D0D0D"/>
<path d="M40.7984 19.7999V3.9624H44.0797V17.0874H50.9047V19.7999H40.7984Z" fill="#0D0D0D"/>
<path d="M79.9766 9.4749C79.7141 7.7249 78.3578 6.65303 76.5203 6.65303C74.0484 6.65303 72.4297 8.55615 72.4297 11.8812C72.4297 15.2937 74.0703 17.1093 76.4984 17.1093C78.3141 17.1093 79.6484 16.103 79.9766 14.3968L83.3016 14.4187C82.9297 17.3499 80.4797 20.0187 76.4547 20.0187C72.2109 20.0187 69.0828 17.0437 69.0828 11.8812C69.0828 6.71865 72.2766 3.74365 76.4547 3.74365C80.1078 3.74365 82.8641 5.84365 83.3016 9.4749H79.9766Z" fill="#0D0D0D"/>
<path d="M85.5984 19.7999V3.9624H96.2297V6.6749H88.8797V10.5249H95.6828V13.2374H88.8797V17.0874H96.2516V19.7999H85.5984Z" fill="#0D0D0D"/>
<path d="M54.1328 19.8V7.66668L59.7328 3.93335L65.3328 7.66668V19.8" stroke="#2EC4B6" stroke-width="3.26667"/>
</svg>
